<svg width="16" height="13" viewBox="0 0 16 13" fill="none" xmlns="http://www.w3.org/2000/svg">
<path d="M14.8571 0.618378H1.14286C0.839753 0.618378 0.549062 0.739199 0.334735 0.954263C0.120408 1.16933 0 1.46102 0 1.76516V10.9394C0 11.2436 0.120408 11.5353 0.334735 11.7503C0.549062 11.9654 0.839753 12.0862 1.14286 12.0862H14.8571C15.1602 12.0862 15.4509 11.9654 15.6653 11.7503C15.8796 11.5353 16 11.2436 16 10.9394V1.76516C16 1.46102 15.8796 1.16933 15.6653 0.954263C15.4509 0.739199 15.1602 0.618378 14.8571 0.618378ZM13.6 1.76516L8 5.65276L2.4 1.76516H13.6ZM1.14286 10.9394V2.28695L7.67429 6.82248C7.76994 6.88906 7.88358 6.92474 8 6.92474C8.11642 6.92474 8.23006 6.88906 8.32571 6.82248L14.8571 2.28695V10.9394H1.14286Z" fill="#FCFCFD"/>
</svg>
