<svg width="16" height="17" viewBox="0 0 16 17" fill="none" xmlns="http://www.w3.org/2000/svg">
<path d="M8 0.508423C5.829 0.508423 5.556 0.518457 4.703 0.556588C3.85 0.596725 3.269 0.731186 2.76 0.929866C2.22609 1.13138 1.74249 1.44746 1.343 1.85604C0.936076 2.25711 0.621107 2.74231 0.42 3.27791C0.222 3.78765 0.087 4.37165 0.048 5.22457C0.01 6.08251 0 6.35545 0 8.53692C0 10.7164 0.01 10.9893 0.048 11.8452C0.088 12.7002 0.222 13.2832 0.42 13.7939C0.625 14.3217 0.898 14.7693 1.343 15.2158C1.787 15.6623 2.233 15.9373 2.759 16.142C3.269 16.3406 3.849 16.4761 4.701 16.5152C5.555 16.5534 5.827 16.5634 8 16.5634C10.173 16.5634 10.444 16.5534 11.298 16.5152C12.149 16.4751 12.732 16.3406 13.241 16.142C13.7746 15.9403 14.2578 15.6243 14.657 15.2158C15.102 14.7693 15.375 14.3217 15.58 13.7939C15.777 13.2832 15.912 12.7002 15.952 11.8452C15.99 10.9893 16 10.7164 16 8.53591C16 6.35544 15.99 6.08251 15.952 5.22558C15.912 4.37165 15.777 3.78765 15.58 3.27791C15.3789 2.7423 15.0639 2.25709 14.657 1.85604C14.2576 1.44731 13.774 1.1312 13.24 0.929866C12.73 0.731186 12.148 0.595722 11.297 0.556588C10.443 0.518457 10.172 0.508423 7.998 0.508423H8.001H8ZM7.283 1.95538H8.001C10.137 1.95538 10.39 1.9624 11.233 2.00154C12.013 2.03666 12.437 2.16811 12.719 2.27748C13.092 2.42298 13.359 2.59758 13.639 2.87854C13.919 3.1595 14.092 3.42641 14.237 3.8017C14.347 4.08367 14.477 4.50912 14.512 5.2918C14.551 6.1377 14.559 6.39157 14.559 8.53391C14.559 10.6762 14.551 10.9311 14.512 11.777C14.477 12.5597 14.346 12.9841 14.237 13.2671C14.1087 13.6157 13.904 13.9308 13.638 14.1893C13.358 14.4702 13.092 14.6438 12.718 14.7893C12.438 14.8997 12.014 15.0302 11.233 15.0663C10.39 15.1044 10.137 15.1134 8.001 15.1134C5.865 15.1134 5.611 15.1044 4.768 15.0663C3.988 15.0302 3.565 14.8997 3.283 14.7893C2.9355 14.6608 2.62113 14.4558 2.363 14.1893C2.09675 13.9304 1.89172 13.615 1.763 13.2661C1.654 12.9841 1.523 12.5587 1.488 11.776C1.45 10.9301 1.442 10.6762 1.442 8.5319C1.442 6.38856 1.45 6.13569 1.488 5.2898C1.524 4.50712 1.654 4.08166 1.764 3.79869C1.909 3.42441 2.083 3.15649 2.363 2.87553C2.643 2.59457 2.909 2.42097 3.283 2.27547C3.565 2.1651 3.988 2.03465 4.768 1.99853C5.506 1.96441 5.792 1.95437 7.283 1.95337V1.95538ZM12.271 3.28794C12.1449 3.28794 12.0201 3.31286 11.9036 3.36127C11.7872 3.40968 11.6813 3.48063 11.5922 3.57008C11.503 3.65953 11.4323 3.76573 11.3841 3.8826C11.3358 3.99947 11.311 4.12474 11.311 4.25124C11.311 4.37774 11.3358 4.503 11.3841 4.61988C11.4323 4.73675 11.503 4.84294 11.5922 4.93239C11.6813 5.02184 11.7872 5.0928 11.9036 5.14121C12.0201 5.18962 12.1449 5.21454 12.271 5.21454C12.5256 5.21454 12.7698 5.11305 12.9498 4.93239C13.1299 4.75174 13.231 4.50672 13.231 4.25124C13.231 3.99576 13.1299 3.75074 12.9498 3.57008C12.7698 3.38943 12.5256 3.28794 12.271 3.28794ZM8.001 4.4138C7.45607 4.40527 6.91489 4.5056 6.40898 4.70895C5.90306 4.9123 5.44251 5.21461 5.05415 5.59828C4.66579 5.98194 4.35736 6.4393 4.14684 6.94372C3.93632 7.44814 3.8279 7.98954 3.8279 8.53641C3.8279 9.08328 3.93632 9.62469 4.14684 10.1291C4.35736 10.6335 4.66579 11.0909 5.05415 11.4746C5.44251 11.8582 5.90306 12.1605 6.40898 12.3639C6.91489 12.5672 7.45607 12.6676 8.001 12.659C9.07954 12.6421 10.1082 12.2004 10.865 11.4291C11.6217 10.6578 12.0459 9.61879 12.0459 8.53641C12.0459 7.45403 11.6217 6.41506 10.865 5.64376C10.1082 4.87245 9.07954 4.43068 8.001 4.4138ZM8.001 5.85975C8.70833 5.85975 9.38669 6.1417 9.88685 6.64358C10.387 7.14546 10.668 7.82615 10.668 8.53591C10.668 9.24567 10.387 9.92637 9.88685 10.4282C9.38669 10.9301 8.70833 11.2121 8.001 11.2121C7.29367 11.2121 6.61531 10.9301 6.11515 10.4282C5.61499 9.92637 5.334 9.24567 5.334 8.53591C5.334 7.82615 5.61499 7.14546 6.11515 6.64358C6.61531 6.1417 7.29367 5.85975 8.001 5.85975Z" fill="#FCFCFD"/>
</svg>
