<svg width="24" height="24" viewBox="0 0 24 24" fill="none" xmlns="http://www.w3.org/2000/svg">
<path d="M12 0C8.7435 0 8.334 0.014829 7.0545 0.0711793C5.775 0.130495 4.9035 0.329204 4.14 0.622819C3.33914 0.920614 2.61374 1.38774 2.0145 1.99154C1.40411 2.58425 0.931661 3.3013 0.63 4.09281C0.333 4.84613 0.1305 5.70917 0.072 6.96964C0.015 8.23752 0 8.64087 0 11.8647C0 15.0856 0.015 15.4889 0.072 16.7538C0.132 18.0173 0.333 18.8788 0.63 19.6336C0.9375 20.4136 1.347 21.075 2.0145 21.7349C2.6805 22.3948 3.3495 22.8011 4.1385 23.1036C4.9035 23.3972 5.7735 23.5974 7.0515 23.6553C8.3325 23.7116 8.7405 23.7264 12 23.7264C15.2595 23.7264 15.666 23.7116 16.947 23.6553C18.2235 23.5959 19.098 23.3972 19.8615 23.1036C20.6618 22.8057 21.3867 22.3386 21.9855 21.7349C22.653 21.075 23.0625 20.4136 23.37 19.6336C23.6655 18.8788 23.868 18.0173 23.928 16.7538C23.985 15.4889 24 15.0856 24 11.8632C24 8.64087 23.985 8.23752 23.928 6.97113C23.868 5.70918 23.6655 4.84613 23.37 4.09281C23.0684 3.30128 22.5959 2.58422 21.9855 1.99154C21.3864 1.38752 20.661 0.920357 19.86 0.622819C19.095 0.329204 18.222 0.129013 16.9455 0.0711793C15.6645 0.014829 15.258 0 11.997 0H12.0015H12ZM10.9245 2.13835H12.0015C15.2055 2.13835 15.585 2.14873 16.8495 2.20656C18.0195 2.25846 18.6555 2.45272 19.0785 2.61436C19.638 2.82938 20.0385 3.0874 20.4585 3.50262C20.8785 3.91783 21.138 4.31228 21.3555 4.86689C21.5205 5.28358 21.7155 5.91233 21.768 7.069C21.8265 8.31908 21.8385 8.69426 21.8385 11.8603C21.8385 15.0263 21.8265 15.4029 21.768 16.653C21.7155 17.8097 21.519 18.4369 21.3555 18.8551C21.1631 19.3702 20.856 19.836 20.457 20.2179C20.037 20.6331 19.638 20.8896 19.077 21.1047C18.657 21.2678 18.021 21.4606 16.8495 21.514C15.585 21.5703 15.2055 21.5836 12.0015 21.5836C8.7975 21.5836 8.4165 21.5703 7.152 21.514C5.982 21.4606 5.3475 21.2678 4.9245 21.1047C4.40325 20.9147 3.93169 20.6117 3.5445 20.2179C3.14513 19.8354 2.83758 19.3692 2.6445 18.8536C2.481 18.4369 2.2845 17.8082 2.232 16.6515C2.175 15.4014 2.163 15.0263 2.163 11.8573C2.163 8.68981 2.175 8.31612 2.232 7.06603C2.286 5.90937 2.481 5.28062 2.646 4.86244C2.8635 4.30931 3.1245 3.91338 3.5445 3.49817C3.9645 3.08295 4.3635 2.82641 4.9245 2.61139C5.3475 2.44827 5.982 2.25549 7.152 2.20211C8.259 2.15169 8.688 2.13686 10.9245 2.13538V2.13835V2.13835ZM18.4065 4.10764C18.2174 4.10764 18.0301 4.14446 17.8554 4.216C17.6807 4.28755 17.522 4.39241 17.3883 4.5246C17.2545 4.65679 17.1485 4.81373 17.0761 4.98644C17.0037 5.15916 16.9665 5.34428 16.9665 5.53123C16.9665 5.71817 17.0037 5.90329 17.0761 6.07601C17.1485 6.24873 17.2545 6.40566 17.3883 6.53785C17.522 6.67005 17.6807 6.77491 17.8554 6.84645C18.0301 6.91799 18.2174 6.95481 18.4065 6.95481C18.7884 6.95481 19.1547 6.80483 19.4247 6.53785C19.6948 6.27088 19.8465 5.90879 19.8465 5.53123C19.8465 5.15367 19.6948 4.79157 19.4247 4.5246C19.1547 4.25762 18.7884 4.10764 18.4065 4.10764V4.10764ZM12.0015 5.77146C11.1841 5.75885 10.3723 5.90712 9.61347 6.20764C8.85459 6.50816 8.16377 6.95492 7.58123 7.52191C6.99868 8.0889 6.53605 8.76479 6.22026 9.51024C5.90448 10.2557 5.74185 11.0558 5.74185 11.864C5.74185 12.6721 5.90448 13.4722 6.22026 14.2177C6.53605 14.9631 6.99868 15.639 7.58123 16.206C8.16377 16.773 8.85459 17.2198 9.61347 17.5203C10.3723 17.8208 11.1841 17.9691 12.0015 17.9565C13.6193 17.9315 15.1623 17.2787 16.2975 16.1388C17.4326 14.9989 18.0689 13.4635 18.0689 11.864C18.0689 10.2644 17.4326 8.72898 16.2975 7.58912C15.1623 6.44927 13.6193 5.79641 12.0015 5.77146V5.77146ZM12.0015 7.90832C13.0625 7.90832 14.08 8.325 14.8303 9.06668C15.5805 9.80837 16.002 10.8143 16.002 11.8632C16.002 12.9121 15.5805 13.9181 14.8303 14.6598C14.08 15.4014 13.0625 15.8181 12.0015 15.8181C10.9405 15.8181 9.92296 15.4014 9.17272 14.6598C8.42248 13.9181 8.001 12.9121 8.001 11.8632C8.001 10.8143 8.42248 9.80837 9.17272 9.06668C9.92296 8.325 10.9405 7.90832 12.0015 7.90832V7.90832Z" fill="#0D0D0D"/>
</svg>
