<svg width="72" height="31" viewBox="0 0 72 31" fill="none" xmlns="http://www.w3.org/2000/svg">
<path d="M5.92 30C8.48 29.88 10.36 28.92 11.76 27.36C13.08 25.8 13.88 23.92 14.36 21.68C15 18.8 14.76 15.64 12.88 14.48C14.12 13.56 14.92 12.76 15.56 11.8C16.2 10.84 16.56 9.8 16.84 8.4C17.48 5.48 17.24 3.56 16.16 2.32C15.08 1.08 13.2 0.599999 10.64 0.599999H6.84L0.6 30H5.92ZM10.24 4.88C10.44 4.88 10.72 4.88 11.08 4.92C11.8 4.96 12.44 5.4 12.72 6.48C12.84 7 12.8 7.8 12.6 8.8C12.16 10.84 11.4 11.8 10.6 12.28C9.76 12.76 8.92 12.72 8.56 12.72L10.24 4.88ZM7.72 16.68H8.56C9.32 16.72 9.96 17.2 10.2 18.44C10.32 19.08 10.24 20 9.96 21.2C9.48 23.6 8.64 24.76 7.84 25.28C7 25.8 6.16 25.72 5.8 25.72L7.72 16.68ZM20.5303 4.64H24.5703L25.4503 0.599999H21.4103L20.5303 4.64ZM19.2103 30L23.8503 8.12H19.8103L15.1703 30H19.2103ZM26.4369 30L32.6769 0.599999H28.6369L22.3969 30H26.4369ZM33.6634 30L39.9034 0.599999H35.8634L29.6234 30H33.6634ZM50.33 13.44C50.53 12.36 50.49 11.48 50.29 10.64C50.13 9.96 49.81 9.2 49.17 8.68C48.53 8.16 47.61 7.8 46.33 7.8C45.01 7.8 43.93 8.08 43.17 8.68C41.45 9.92 40.57 11.44 39.97 13.56L37.61 24.56C37.45 25.56 37.45 26.52 37.65 27.44C37.81 28.2 38.13 28.84 38.77 29.4C39.37 29.96 40.29 30.32 41.57 30.32C42.89 30.32 43.93 30.04 44.77 29.44C46.49 28.28 47.37 26.8 47.97 24.68L50.33 13.44ZM44.17 24.56C44.13 25 44.01 25.36 43.81 25.68C43.53 26.28 43.09 26.76 42.33 26.76C41.97 26.76 41.69 26.64 41.53 26.44C41.25 25.96 41.21 25.32 41.41 24.56L43.77 13.56C43.81 13.12 43.93 12.76 44.13 12.44C44.41 11.84 44.85 11.32 45.61 11.32C45.97 11.32 46.25 11.44 46.41 11.64C46.69 12.08 46.73 12.72 46.53 13.56L44.17 24.56ZM62.1416 30L70.0216 8.12H66.3416L62.6216 19.56L62.1816 20.8H61.9416L62.0216 19.56L62.7816 8.12H60.3816L56.2616 19.56L55.7816 20.8H55.5416L55.6616 19.56L56.8216 8.12H53.1416L51.7416 30H55.1016L58.8616 19.56L59.3416 18.32H59.5016L59.4216 19.56L58.7816 30H62.1416ZM66.8369 30H71.0369L71.9569 25.56H67.7569L66.8369 30Z" fill="#FCFCFD"/>
</svg>
