<svg width="72" height="31" viewBox="0 0 72 31" fill="none" xmlns="http://www.w3.org/2000/svg">
<path d="M5.37703 30C7.93703 29.88 9.81703 28.92 11.217 27.36C12.537 25.8 13.337 23.92 13.817 21.68C14.457 18.8 14.217 15.64 12.337 14.48C13.577 13.56 14.377 12.76 15.017 11.8C15.657 10.84 16.017 9.8 16.297 8.4C16.937 5.48 16.697 3.56 15.617 2.32C14.537 1.08 12.657 0.599999 10.097 0.599999H6.29703L0.0570314 30H5.37703ZM9.69703 4.88C9.89703 4.88 10.177 4.88 10.537 4.92C11.257 4.96 11.897 5.4 12.177 6.48C12.297 7 12.257 7.8 12.057 8.8C11.617 10.84 10.857 11.8 10.057 12.28C9.21703 12.76 8.37703 12.72 8.01703 12.72L9.69703 4.88ZM7.17703 16.68H8.01703C8.77703 16.72 9.41703 17.2 9.65703 18.44C9.77703 19.08 9.69703 20 9.41703 21.2C8.93703 23.6 8.09703 24.76 7.29703 25.28C6.45703 25.8 5.61703 25.72 5.25703 25.72L7.17703 16.68ZM19.9873 4.64H24.0273L24.9073 0.599999H20.8673L19.9873 4.64ZM18.6673 30L23.3073 8.12H19.2673L14.6273 30H18.6673ZM25.8939 30L32.1339 0.599999H28.0939L21.8539 30H25.8939ZM33.1205 30L39.3605 0.599999H35.3205L29.0805 30H33.1205ZM49.787 13.44C49.987 12.36 49.947 11.48 49.747 10.64C49.587 9.96 49.267 9.2 48.627 8.68C47.987 8.16 47.067 7.8 45.787 7.8C44.467 7.8 43.387 8.08 42.627 8.68C40.907 9.92 40.027 11.44 39.427 13.56L37.067 24.56C36.907 25.56 36.907 26.52 37.107 27.44C37.267 28.2 37.587 28.84 38.227 29.4C38.827 29.96 39.747 30.32 41.027 30.32C42.347 30.32 43.387 30.04 44.227 29.44C45.947 28.28 46.827 26.8 47.427 24.68L49.787 13.44ZM43.627 24.56C43.587 25 43.467 25.36 43.267 25.68C42.987 26.28 42.547 26.76 41.787 26.76C41.427 26.76 41.147 26.64 40.987 26.44C40.707 25.96 40.667 25.32 40.867 24.56L43.227 13.56C43.267 13.12 43.387 12.76 43.587 12.44C43.867 11.84 44.307 11.32 45.067 11.32C45.427 11.32 45.707 11.44 45.867 11.64C46.147 12.08 46.187 12.72 45.987 13.56L43.627 24.56ZM61.5986 30L69.4786 8.12H65.7986L62.0786 19.56L61.6386 20.8H61.3986L61.4786 19.56L62.2386 8.12H59.8386L55.7186 19.56L55.2386 20.8H54.9986L55.1186 19.56L56.2786 8.12H52.5986L51.1986 30H54.5586L58.3186 19.56L58.7986 18.32H58.9586L58.8786 19.56L58.2386 30H61.5986ZM66.2939 30H70.4939L71.4139 25.56H67.2139L66.2939 30Z" fill="#D44502"/>
</svg>
