<svg width="17" height="21" viewBox="0 0 17 21" fill="none" xmlns="http://www.w3.org/2000/svg">
<path d="M10.5357 14.3164V16.6794C10.5357 17.1796 10.3906 17.4297 10.1004 17.4297C9.92931 17.4297 9.7619 17.3476 9.59821 17.1833V13.8124C9.7619 13.6482 9.92931 13.5661 10.1004 13.5661C10.3906 13.5661 10.5357 13.8162 10.5357 14.3164ZM14.308 14.3276V14.8427H13.3036V14.3276C13.3036 13.8199 13.471 13.5661 13.8058 13.5661C14.1406 13.5661 14.308 13.8199 14.308 14.3276ZM3.52679 11.8862H4.72098V10.8335H1.23884V11.8862H2.41071V18.2585H3.52679V11.8862ZM6.74107 18.2585H7.73437V12.7261H6.74107V16.9594C6.51786 17.2729 6.3058 17.4297 6.10491 17.4297C5.97098 17.4297 5.89286 17.3513 5.87053 17.1945C5.86309 17.1721 5.85937 17.0415 5.85937 16.8026V12.7261H4.86607V17.105C4.86607 17.4708 4.89583 17.7433 4.95536 17.9225C5.04464 18.1987 5.26042 18.3368 5.60268 18.3368C5.95982 18.3368 6.33928 18.1091 6.74107 17.6537V18.2585ZM11.529 16.601V14.3948C11.529 13.8498 11.4955 13.4802 11.4286 13.2861C11.3021 12.868 11.0379 12.6589 10.6362 12.6589C10.2641 12.6589 9.91815 12.8605 9.59821 13.2637V10.8335H8.60491V18.2585H9.59821V17.7209C9.93303 18.1315 10.279 18.3368 10.6362 18.3368C11.0379 18.3368 11.3021 18.1315 11.4286 17.7209C11.4955 17.5193 11.529 17.146 11.529 16.601ZM15.3013 16.489V16.3434H14.2857C14.2857 16.7242 14.2783 16.9519 14.2634 17.0266C14.2113 17.2953 14.0625 17.4297 13.817 17.4297C13.4747 17.4297 13.3036 17.1721 13.3036 16.657V15.6827H15.3013V14.5292C15.3013 13.9394 15.2009 13.5063 15 13.2301C14.7098 12.8493 14.3155 12.6589 13.817 12.6589C13.311 12.6589 12.9129 12.8493 12.6228 13.2301C12.4144 13.5063 12.3103 13.9394 12.3103 14.5292V16.4666C12.3103 17.0564 12.4182 17.4895 12.6339 17.7657C12.9241 18.1465 13.3259 18.3368 13.8393 18.3368C14.375 18.3368 14.7768 18.139 15.0446 17.7433C15.1786 17.5417 15.2567 17.3401 15.279 17.1385C15.2939 17.0714 15.3013 16.8548 15.3013 16.489ZM8.51562 6.26427V3.91247C8.51562 3.39731 8.35565 3.13973 8.03571 3.13973C7.71577 3.13973 7.5558 3.39731 7.5558 3.91247V6.26427C7.5558 6.78689 7.71577 7.0482 8.03571 7.0482C8.35565 7.0482 8.51562 6.78689 8.51562 6.26427ZM16.5402 14.6748C16.5402 16.4218 16.4435 17.7284 16.25 18.5944C16.1458 19.0349 15.9301 19.4045 15.6027 19.7031C15.2753 20.0018 14.8958 20.1735 14.4643 20.2183C13.0952 20.3751 11.0305 20.4535 8.27009 20.4535C5.50967 20.4535 3.44494 20.3751 2.07589 20.2183C1.64435 20.1735 1.26302 20.0018 0.93192 19.7031C0.600818 19.4045 0.386905 19.0349 0.290179 18.5944C0.0967262 17.7582 0 16.4517 0 14.6748C0 12.9277 0.0967262 11.6211 0.290179 10.7551C0.394345 10.3146 0.610119 9.94502 0.9375 9.64638C1.26488 9.34774 1.64807 9.17229 2.08705 9.12003C3.44866 8.97071 5.50967 8.89605 8.27009 8.89605C11.0305 8.89605 13.0952 8.97071 14.4643 9.12003C14.8958 9.17229 15.2772 9.34774 15.6083 9.64638C15.9394 9.94502 16.1533 10.3146 16.25 10.7551C16.4435 11.5913 16.5402 12.8978 16.5402 14.6748ZM5.40178 0.384766H6.54018L5.18973 4.85319V7.88813H4.07366V4.85319C3.96949 4.3007 3.74256 3.5093 3.39286 2.47899C3.11756 1.70999 2.87574 1.01191 2.66741 0.384766H3.85045L4.64286 3.33012L5.40178 0.384766ZM9.53125 4.11405V6.07388C9.53125 6.67863 9.42708 7.11913 9.21875 7.39537C8.93601 7.77614 8.54167 7.96652 8.03571 7.96652C7.5372 7.96652 7.14658 7.77614 6.86384 7.39537C6.65551 7.11166 6.55134 6.67117 6.55134 6.07388V4.11405C6.55134 3.51677 6.65551 3.08 6.86384 2.80376C7.14658 2.42299 7.5372 2.23261 8.03571 2.23261C8.54167 2.23261 8.93601 2.42299 9.21875 2.80376C9.42708 3.08 9.53125 3.51677 9.53125 4.11405ZM13.2701 2.2998V7.88813H12.2545V7.27218C11.8601 7.73508 11.4769 7.96652 11.1049 7.96652C10.7626 7.96652 10.5432 7.8284 10.4464 7.55216C10.3869 7.37297 10.3571 7.093 10.3571 6.71223V2.2998H11.3728V6.40986C11.3728 6.65624 11.3765 6.78689 11.3839 6.80182C11.4062 6.96608 11.4844 7.0482 11.6183 7.0482C11.8192 7.0482 12.0312 6.88768 12.2545 6.56664V2.2998H13.2701Z" fill="#FCFCFD"/>
</svg>
